<?xml version="1.0" encoding="UTF-8"?>
<svg id="Capa_1" xmlns="http://www.w3.org/2000/svg" viewBox="0 0 595.28 419.53">
  <defs>
    <style>
      .cls-1 {
        fill: #fff;
      }

      .cls-2 {
        fill: #132f56;
      }
    </style>
  </defs>
  <rect class="cls-2" y="-5.2" width="595.51" height="424.72"/>
  <g>
    <path class="cls-1" d="M254.64,221.96h10.23c0,.83,0,1.56,0,2.29,0,7.75-.03,15.5.04,23.25.01,1.69.16,3.45.63,5.07,1.38,4.76,5.7,7.06,11.46,6.29,4.64-.61,7.91-4.14,8.03-9.19.2-8.5.16-17.01.21-25.51,0-.67,0-1.35,0-2.16h10.28c0,3.64.01,7.25,0,10.86-.02,5.69.1,11.39-.14,17.07-.45,10.43-8.43,18.03-18.88,18-3.05,0-6.21-.19-9.14-.96-7.25-1.91-12.41-8.55-12.66-16.65-.29-9.38-.07-18.78-.07-28.36Z"/>
    <path class="cls-1" d="M307.2,299.33v32.34h-10.93v-51.23c3.31,0,6.68-.1,10.02.08.68.04,1.45,1.02,1.94,1.72,6.97,9.89,13.89,19.81,20.83,29.73.23.33.5.63,1.05,1.31v-32.69h11.12v51.2c-3.29,0-6.64.07-9.98-.07-.54-.02-1.13-.9-1.54-1.49-7.35-10.33-14.69-20.68-22.02-31.02-.17.04-.33.08-.5.12Z"/>
    <path class="cls-1" d="M176.42,306.16c-.58-14.85,11.82-27.68,29.86-26.84,14.81.7,26.83,12.01,26.32,27.36-.51,15.19-12.52,26.39-28.71,26.13-16.14-.26-27.63-11.41-27.46-26.66ZM220.74,306.12c0-9.68-6.73-16.46-16.38-16.5-9.27-.04-15.99,6.75-16.07,16.25-.09,9.6,6.72,16.57,16.3,16.68,9.28.11,16.16-6.89,16.16-16.43Z"/>
    <path class="cls-1" d="M285.19,331.83c-3.09,0-5.97.12-8.83-.08-.8-.05-1.74-.88-2.26-1.6-7.47-10.36-14.89-20.76-22.69-31.66v33.17h-11.2v-51.21c3.4,0,6.84-.12,10.26.1.72.04,1.46,1.23,2.02,2.01,6.77,9.62,13.51,19.26,20.26,28.88.46.66.97,1.28,1.69,2.23v-33.06h10.74v51.22Z"/>
    <path class="cls-1" d="M224.43,267.05h-10.06v-45c.4-.06.85-.17,1.3-.17,6.1-.01,12.21-.06,18.31,0,8.36.09,14.46,5.87,14.94,13.61.63,10.31-6.47,15.67-13.87,16.41-3.46.35-6.95.34-10.62.5v14.65ZM224.51,229.97v14.26c3.15-.19,6.23-.14,9.23-.61,3.23-.51,4.89-3.03,4.9-6.57,0-3.69-1.47-5.97-4.86-6.52-2.99-.49-6.08-.39-9.26-.56Z"/>
    <path class="cls-1" d="M339.37,235.25c-4.88-5.1-10.6-6.43-17.07-4.7-6.86,1.84-10.96,8.44-9.96,15.89.98,7.37,6.3,12.21,13.46,12.49,5.31.21,10.03-1.03,14.02-5.07,1.72,2.31,3.41,4.58,5.17,6.94-3.37,3.35-7.25,5.53-11.76,6.48-7.74,1.62-15.14.79-21.82-3.72-7.82-5.28-11.51-14.52-9.36-24.13,2.1-9.36,8.2-15.22,17.37-17.49,8.46-2.1,16.59-1.1,23.74,4.43.58.45,1.11.98,1.74,1.54-1.84,2.45-3.6,4.78-5.52,7.33Z"/>
    <path class="cls-1" d="M351.83,222.23c7.39,0,14.68-.48,21.87.14,7.13.61,11.81,6.46,12.27,13.23.6,8.84-4.52,14.31-11.18,15.87-2.18.51-4.46.62-6.71.75-2.04.12-4.08.03-6.34.03,0,2.61,0,5.06,0,7.51s0,4.77,0,7.26h-9.91v-44.79ZM361.79,244.25c3.25-.2,6.32-.17,9.33-.62,2.98-.45,4.71-2.99,4.81-6.27.1-3.3-1.43-6.16-4.27-6.68-3.21-.59-6.55-.51-9.87-.72v14.29Z"/>
    <path class="cls-1" d="M386.1,280.57v9.54h-22.45v10.8h20.81v9.11h-20.75v11.84h22.77v9.8h-34.36v-51.1h33.98Z"/>
    <path class="cls-1" d="M439.27,325.04c-8.58,10.35-28.43,10.52-39.27.54-10.33-9.51-10.46-28-.27-38.22,10.26-10.29,30.37-10.76,39.61-.67-1.96,2.62-3.96,5.29-5.97,7.96-9.02-6.75-18.86-6.71-25.03.03-5.35,5.84-5.23,16.79.22,22.92,4.97,5.59,16.59,7.51,25.77-.05,1.63,2.47,3.25,4.92,4.94,7.48Z"/>
    <path class="cls-1" d="M172.24,286.83c-1.95,2.59-3.92,5.21-6.02,7.98-4.42-4.22-9.62-5.8-15.45-5.08-3.96.49-7.49,2.08-10.14,5.22-5.23,6.21-4.73,17.37,1.03,23.09,6.29,6.25,17.48,5.89,25.57-.95,1.75,2.59,3.48,5.16,5.2,7.71-7.54,9.92-27.85,10.53-38.61,1.23-11.08-9.57-11.77-28.16-1.44-38.68,10.25-10.44,30.74-10.77,39.85-.53Z"/>
    <path class="cls-1" d="M486.33,280.58v9.97h-14.67v41.13h-11.6v-40.98h-15.08v-10.12h41.35Z"/>
    <path class="cls-1" d="M380.94,120.79c-.17,33.17-21.98,63.7-52.89,73.57-8.92,2.85-18.05,3.71-27.4,3.06-15.47-1.08-29.29-6.24-41.26-16.15-14.69-12.15-23.98-27.6-27.39-46.36-4.05-22.26.91-42.53,14.77-60.39,11.24-14.48,26.07-23.48,44.1-26.95,18.75-3.61,36.62-.91,53.03,8.85,19.17,11.4,31.08,28.25,35.35,50.24.9,4.65,1.14,9.42,1.69,14.13ZM245.98,155.25c.48-.15.86-.31,1.25-.39,4.45-.86,8.86-2.13,13.35-2.49,13.24-1.07,25.8,1.66,37.55,7.85,7.17,3.78,14.2,7.83,21.36,11.63,7.34,3.89,15.06,6.48,23.51,6.31,1.56-.03,2.91-.33,4.11-1.41,3.08-2.77,6.2-5.5,9.61-8.51-.69-.07-.8-.11-.88-.08-7.42,3.06-15.07,4.2-23.04,2.78-9.34-1.66-17.71-5.85-26.17-9.86.32-.04.6.01.88.1,10.19,3.03,20.47,5.36,31.23,4.48,9.33-.76,17.89-3.52,25.34-9.31.83-.65,1.65-1.48,2.12-2.4,7.12-14.25,9.69-29.24,6.85-44.97-3.24-17.93-12.18-32.54-26.98-43.16-16.29-11.69-34.57-15.13-54.19-11.41-31.58,5.98-53.81,33.19-54.62,64.82-.33,12.75,2.72,24.63,8.74,36.03ZM249.36,161.1c2.21,2.64,4.24,5.12,6.36,7.52.37.42,1.13.68,1.71.69,3.2.07,6.41-.19,9.59.08,8.72.72,16.84,3.42,24.34,7.95,5.7,3.44,11.22,7.19,17.51,9.55,5.62,2.11,11.27,3.86,17.27,1.41,3.17-1.29,6.34-2.56,9.69-3.91-3.62-.99-6.91-1.69-10.06-2.78-7.5-2.59-14.33-6.61-21.16-10.57-11.45-6.65-23.28-12.04-36.86-12.38-6.2-.15-12.26.52-18.4,2.44ZM262.52,175.48c11.62,9.35,24.25,14.96,39.1,15.51-4.83-2.97-9.41-5.9-14.11-8.64-7.57-4.42-15.75-6.79-24.99-6.86Z"/>
    <path class="cls-1" d="M323.65,103.28c4.29,0,8.62-.39,12.85.08,8.41.94,15.04,7.37,16.75,15.62,1.86,8.96-1.74,17.56-9.51,22.45-.93.58-1.21,1.18-1.18,2.21.07,2.17.04,4.35.01,6.52-.02,1.17-.23,2.31-1.48,2.83-1.23.5-2.19-.04-3.05-.9-2.19-2.2-4.37-4.42-6.64-6.52-.57-.53-1.49-.93-2.26-.95-5.06-.15-10.17.21-15.19-.3-18.98-1.96-24.17-20.89-15.56-33.43,3.54-5.15,8.61-7.73,14.87-7.86,3.47-.07,6.93-.01,10.4-.01,0,.09,0,.18,0,.27Z"/>
    <path class="cls-1" d="M324.37,97.76c-3.42,0-6.72,0-10.03,0-12.89,0-22.78,8.47-24.79,21.26-.21,1.32-.34,2.66-.41,4-.07,1.34-.02,2.68-.02,4.22-2.08,0-4.24-.05-6.4.03-.6.02-1.31.29-1.75.69-2.7,2.41-5.34,4.89-8,7.34-.9.83-1.83,1.58-3.17,1.03-1.45-.59-1.66-1.85-1.67-3.19-.01-3.11.04-6.21-.04-9.31-.02-.6-.39-1.37-.85-1.77-7.82-6.63-11.11-15.05-8.95-25.04,2.1-9.7,8.35-15.91,18.06-18.36,1.88-.47,3.88-.66,5.83-.66,7.19-.02,14.4-.22,21.57.21,10.56.63,18.6,8.4,20.6,18.58.05.25,0,.51,0,.96Z"/>
  </g>
</svg>